<svg width="400" height="400" xmlns="http://www.w3.org/2000/svg">
 <!-- Created with Method Draw - http://github.com/duopixel/Method-Draw/ -->
 <g>
  <title>Layer 1</title>
  <rect stroke="null" id="svg_9" height="152.271006" width="189.997858" y="137.118483" x="100.318183" stroke-width="15" fill="#ffffff"/>
  <path stroke="#000" id="svg_1" d="m99.181436,281.814153c1.22265,56.12303 196.84631,56.96881 195.62366,-2.41719" stroke-width="15" fill="#ffffff"/>
  <path d="m52.931786,147.802733c0,0.625 0,2.49999 0,7.49995c0,4.99996 0,9.99992 0,13.74989c0,1.87499 1.78267,2.31261 3.74997,-0.625c4.52103,-6.75091 5.21955,-16.33607 6.87495,-23.12481c2.01387,-8.25887 3.64855,-13.02349 5.62496,-14.9999c0.9882,-0.98819 1.87498,-0.62499 1.87498,1.25c0,3.74997 0.52808,8.81856 -0.625,15.62488c-1.29129,7.62216 -3.43734,14.36112 -3.74997,24.9998c-0.23865,8.12143 -0.70079,17.55637 0,21.87485c0.31659,1.95088 2.23006,2.03241 3.74997,-1.87498c3.29899,-8.48104 2.56185,-18.2018 4.37497,-29.37479c1.43341,-8.83302 4.24998,-18.61267 8.12494,-23.74982c1.5968,-2.11692 4.03672,-2.06659 4.37497,-1.24999c1.43506,3.46452 -0.86436,9.173 -2.49998,18.12486c-1.3527,7.40338 -1.87499,14.37489 -1.87499,19.37486c0,4.37497 0,7.49994 0,8.74994c0,0.62498 2.6135,0.24673 4.99996,-8.12494c3.66278,-12.84902 5.67707,-28.90475 9.99993,-43.74968c2.76289,-9.48795 5.95487,-17.97732 8.74994,-19.37485c0.55901,-0.2795 1.34013,1.99843 -0.625,11.24991c-2.30112,10.83325 -4.98356,22.50066 -5.62496,34.99974c-0.60941,11.87572 -0.625,18.74986 -0.625,24.99982c0,3.12497 1.40669,4.98091 2.49999,4.37495c5.15706,-2.85828 7.24093,-12.99518 10.62491,-23.12482c3.50915,-10.5043 5.5231,-19.6577 8.74994,-26.8748c2.05672,-4.60001 3.93303,-4.81689 4.37496,-4.37496c2.65163,2.65163 -1.33583,8.47837 -4.37496,17.49986c-3.2907,9.76831 -4.37314,17.42822 -4.99996,25.62481c-0.38125,4.98542 -1.32581,9.29911 0,10.62493c0.44193,0.44194 2.99875,-1.74762 4.99996,-10.62493c2.50812,-11.12589 5.76093,-30.58912 7.49994,-37.49971c4.06978,-16.17275 5.19247,-24.82825 7.49994,-28.74979c0.89648,-1.52358 2.18596,-1.29637 2.49998,1.87499c0.61585,6.21953 -0.65614,15.62319 -1.24998,26.8748c-0.65962,12.49813 -1.12987,21.26554 -0.625,29.37477c0.31311,5.02915 1.92256,7.11414 2.49998,6.87496c1.6332,-0.6765 3.01435,-7.52133 4.99996,-17.49987c2.36833,-11.90187 5.66617,-25.61278 8.74994,-36.24974c2.53387,-8.74018 3.62048,-12.90104 4.99997,-13.1249c0.87246,-0.14157 0.62498,6.24996 0.62498,15.62489c0,12.49991 0,24.99981 0,33.12475c0,9.37493 -1.13252,16.63483 2.49999,19.37485c0.49896,0.37638 2.17088,-0.54376 3.74997,-6.87495c2.31366,-9.27641 4.26048,-21.27451 6.87495,-33.12474c1.79648,-8.14266 2.09602,-15.0231 4.37497,-17.49987c0.94627,-1.02842 1.87498,-0.625 1.87498,0.62499c0,4.37497 -0.93389,11.75186 -1.87498,22.49983c-1.14482,13.07488 -0.1868,31.25443 0,34.99974c0.62576,12.54666 2.02949,17.09372 3.74997,17.49987c1.92354,0.45407 4.32764,-7.50953 6.24995,-16.87488c2.43998,-11.88738 5.11624,-23.71715 8.74993,-36.87472c2.58284,-9.35245 3.52626,-19.25459 7.49995,-21.87483c1.56531,-1.03217 2.8084,-0.0759 3.12497,1.87498c1.00111,6.16925 -0.31242,13.73971 -0.62498,28.12479c-0.24439,11.24726 -1.04026,19.44735 0,26.87479c0.63108,4.50606 2.38981,7.17887 3.74997,7.49996c1.21655,0.28718 3.01739,-1.12941 4.37496,-8.12494c2.03812,-10.50227 2.4005,-25.02089 5.62496,-39.9997c2.42526,-11.26626 2.67714,-21.65617 6.24995,-25.62481c0.93505,-1.03864 1.87499,0 1.87499,4.99996c0,8.74993 0,19.37485 0,31.87476c0,12.4999 0.11734,20.71936 1.87498,28.74979c0.97284,4.44479 2.59514,6.7283 3.74997,6.24995c2.4498,-1.01474 3.29375,-6.21284 4.99996,-14.37489c2.08183,-9.95893 3.36416,-24.4535 7.49995,-43.74968c2.28749,-10.67268 4.61676,-16.19838 6.24995,-16.87487c0.57741,-0.23917 1.43718,1.8781 1.24999,7.49995c-0.31267,9.39053 -2.18742,21.24008 -2.49999,36.24972c-0.3253,15.6215 -1.01208,25.22159 1.25,33.12476c1.30979,4.57605 3.36092,6.35585 4.37497,5.62495c3.20668,-2.31125 1.6794,-10.6418 3.12496,-26.2498c1.10116,-11.88964 4.44101,-27.48447 6.87497,-38.12472c2.56979,-11.23417 4.26315,-17.06155 6.24994,-18.12486c0.55105,-0.29491 1.56143,1.21122 1.875,4.99996c0.5155,6.22866 -0.96695,14.96713 -1.875,26.2498c-1.00403,12.47519 -0.625,21.24984 -0.625,29.99977c0,7.49996 0.92141,10.09327 1.25,10.62493c0.73474,1.18883 2.0755,0.6709 3.12497,-4.37497c2.32238,-11.16613 2.82772,-24.43515 4.99997,-34.37474c2.20074,-10.07001 2.38815,-16.43656 4.37497,-17.49987c1.10208,-0.58982 2.21786,0.48121 3.12497,3.12498c1.03424,3.01438 2.53726,8.77189 1.875,18.74986c-0.62638,9.43713 -3.12497,20.62484 -3.12497,31.24977c0,7.49994 -0.20316,14.1374 1.87497,17.49986c1.39404,2.25562 4.40139,2.51735 5.62496,0.625c4.12845,-6.38496 3.61203,-17.52248 5.62494,-29.37479c2.33997,-13.77803 5.89334,-28.21506 8.74994,-38.7497c2.22476,-8.20457 5.37332,-11.93923 7.49994,-10.62492c3.56644,2.20418 2.38016,7.52267 1.875,13.1249c-0.62753,6.95943 -2.81235,15.61025 -3.12497,25.62481c-0.25351,8.12098 -0.22458,15.66289 0.62497,19.99985c0.49536,2.52886 1.875,3.12497 3.125,3.12497c0.625,0 2.73331,-4.3398 3.74997,-11.87491c2.43646,-18.05795 3.13309,-28.87731 5.62494,-39.3747c1.50705,-6.34872 1.93619,-9.2652 3.125,-9.99992c0.53165,-0.32857 0.77771,0.63436 0.62497,1.87498c-0.6297,5.11523 -4.65195,10.51881 -8.12494,19.99985c-3.39902,9.27909 -4.40799,15.61733 -6.24994,23.74982c-1.27286,5.61983 -1.25,10.62491 -1.25,13.7499c0,1.24998 0.42987,2.38688 -1.24997,-3.12499c-4.50015,-14.76571 -13.21844,-34.96787 -20.62485,-56.87456c-3.798,-11.23379 -8.12493,-21.24984 -9.37493,-23.74982c0,0 0.19824,1.25448 0,5.62496c-0.31284,6.89621 -1.29776,13.74572 -1.875,20.62484c-0.6814,8.1204 -0.93729,15.60927 -1.24997,24.99981c-0.20798,6.24649 0.30545,10.64365 0,13.1249c-0.31485,2.55762 -0.625,3.12498 -0.625,3.12498c-0.625,-0.62499 -2.64612,-6.20951 -4.99997,-14.99989c-1.99967,-7.46766 -3.4364,-13.71112 -3.74997,-17.49987c-0.15467,-1.86859 0.14358,-1.85826 0,-1.24999c-0.32108,1.36016 -0.95856,5.06034 -1.87497,8.74994c-0.95282,3.83626 -1.30677,8.24466 -2.5,12.4999c-1.28516,4.58304 -1.37235,7.90548 -3.74997,9.37493c-0.53165,0.32859 -2.45859,-0.01141 -4.37497,-6.87494c-2.44724,-8.76484 -3.91651,-15.98254 -6.87494,-23.12483c-1.39462,-3.36691 -1.87499,-4.37497 -2.49999,-4.37497c-0.625,0 -2.21806,2.38375 -3.12496,5.62496c-1.02439,3.66108 -1.75916,8.15533 -3.12499,13.1249c-1.72925,6.29184 -2.79146,12.29151 -5.62495,17.49987c-1.91246,3.51538 -3.65816,6.0157 -4.99997,5.62496c-3.49898,-1.01891 -5.04627,-14.36572 -7.49994,-26.8748c-3.18514,-16.23819 -4.02066,-27.67163 -6.24996,-37.49972c-0.43719,-1.92744 -0.75462,-1.27887 -1.24998,1.24999c-0.84955,4.33696 -2.04794,10.68678 -3.12499,16.87487c-1.76747,10.15502 -5.09327,19.34238 -8.74992,29.99978c-3.84851,11.2166 -6.38554,18.0698 -9.37494,25.6248c-1.96474,4.9654 -3.36091,6.98085 -4.37497,6.24996c-1.60333,-1.15563 -4.41743,-13.64755 -5.62495,-23.74982c-1.41133,-11.8073 -0.625,-24.37482 -0.625,-33.74975c0,-7.49994 0.625,-11.87491 0,-11.87491c-0.625,0 0,1.87499 0,4.37497c0,3.74997 -0.08736,8.72138 -2.49997,16.24987c-2.59427,8.09533 -5.92088,16.79364 -7.49996,23.12483c-1.54243,6.18428 -1.87498,11.87491 -1.87498,12.49991c0,0 -0.31223,-3.10549 -0.62499,-10.62492c-0.46752,-11.2402 0.09569,-20.00591 -0.625,-30.62477c-0.55178,-8.13024 -1.52163,-15.09425 -3.12498,-16.24988c-1.01404,-0.73088 -1.77486,0.64306 -2.49997,4.37497c-1.09903,5.65639 -2.90866,12.55732 -4.99997,19.99985c-2.83417,10.0862 -5.42033,14.81769 -6.87494,18.74985c-0.89406,2.41687 -1.29757,2.73916 -1.87498,2.49999c-0.81661,-0.33825 -2.11829,-4.32638 -3.12499,-9.99993c-1.65237,-9.31243 -2.40584,-20.01288 -3.74997,-29.37477c-1.16827,-8.1371 -1.6161,-12.86602 -2.49998,-13.7499c-0.44194,-0.44194 -1.71315,2.95432 -3.12497,7.49994c-1.89053,6.0869 -2.84865,11.96456 -4.99997,18.12486c-2.21932,6.35504 -4.51328,11.44902 -6.24995,14.99989c-0.99006,2.02431 -2.49998,3.12498 -2.49998,3.12498c-1.24999,-1.25 -1.5107,-7.55225 -3.12498,-17.49987c-1.53143,-9.43714 -3.74997,-19.37485 -4.99996,-26.8748c-0.62499,-3.74997 -0.45218,-2.49519 -0.62499,0.625c-0.31298,5.65091 -1.68079,11.2749 -2.49999,16.87487c-1.01143,6.91407 -3.32299,13.68109 -5.62495,20.62484c-2.0533,6.19367 -3.10781,11.0296 -3.74998,13.7499c-0.28718,1.21655 0,0 0,-2.49998c0,-2.49998 -1.24903,-15.57297 -1.87498,-26.8748c-0.41475,-7.48847 -0.625,-16.24987 -0.625,-21.24984c0,-2.49998 0,-3.12497 0,-2.49998c0,3.12498 0.68169,8.88453 -1.24999,16.87488c-1.85768,7.68427 -5.46152,16.93497 -8.74993,25.6248c-3.57363,9.44356 -5.24371,15.54108 -7.49995,22.49983c-1.40333,4.32821 -1.24999,6.24995 -1.24999,4.37496c0,-3.12497 -0.17436,-12.4706 -1.87498,-23.12481c-1.39322,-8.72828 -3.47148,-18.05262 -4.99997,-26.24981c-0.81009,-4.3445 -1.24999,-6.87495 -1.24999,-6.87495c0,0 0,1.24999 0,3.74998c0,3.74997 -2.69373,10.41691 -4.37496,18.74985c-1.24223,6.15707 -3.67609,17.5168 -4.99996,23.12483c-0.59206,2.50799 -1.24999,4.37497 -1.24999,4.37497c0,0 -1.01687,-3.0779 -1.87499,-11.87491c-1.15449,-11.83518 -2.11016,-25.08412 -0.625,-38.12472c0.94356,-8.28492 2.94631,-15.13218 4.37497,-16.87487c0.56036,-0.68354 0.93671,-0.65829 1.24999,3.74997c0.22153,3.11712 -0.49153,8.15627 -1.87498,13.7499c-1.71091,6.91761 -1.87499,13.1249 -1.87499,18.12486c0,3.74997 0.34322,6.84693 2.49998,7.49994c1.19636,0.36223 2.99211,0.27576 5.62495,-4.99996c3.88715,-7.78911 5.76895,-19.49193 8.12494,-28.12479c2.08141,-7.62671 3.62049,-12.72375 4.99997,-12.4999c0.87246,0.14158 0.86693,3.13167 0.625,7.49994c-0.31299,5.65091 -3.39911,12.38591 -5.62497,18.12487c-2.14402,5.528 -3.74997,10.62492 -3.74997,13.1249c0,1.24999 0,1.87498 0,1.87498c1.25,-2.49998 4.37497,-8.12494 6.87495,-18.12486c3.74997,-14.99989 4.79684,-22.26234 6.87496,-25.62481c0.92935,-1.50374 2.81094,-1.29636 3.12496,1.87499c0.36952,3.73172 0.72771,9.4715 -0.62499,16.87487c-1.63563,8.95187 -5.02215,19.37318 -5.62495,27.4998c-0.6489,8.74819 -1.50375,15.31508 0,18.12486c0.41706,0.77929 2.72275,0.70956 4.99996,-5.62496c5.54987,-15.43812 8.36371,-28.24448 11.24992,-36.87472c2.76096,-8.25574 5.48092,-11.77585 6.87494,-11.87491c1.97144,-0.14011 3.12498,4.37496 3.12498,11.24991c0,8.74994 0,17.49987 0,28.74979c0,10.62492 -0.44931,19.38729 0,27.49979c0.31297,5.65091 1.39332,9.10538 3.12498,8.74994c3.29697,-0.67673 3.29179,-11.22339 4.99996,-22.49984c2.07841,-13.72062 4.61912,-29.48159 8.12493,-41.24969c3.38568,-11.36486 6.30016,-19.61011 8.74994,-20.62484c1.73225,-0.71753 3.22735,0.60936 3.74997,4.37497c0.778,5.60584 0.625,13.74989 0.625,23.74982c0,10.62491 0.23927,18.7163 1.87498,31.24976c0.73241,5.61198 0.99111,8.49105 1.87499,9.37493c0.88386,0.88388 1.4936,0.08675 2.49998,-3.12497c2.49327,-7.957 2.19187,-21.28135 3.74997,-34.99975c1.56607,-13.78849 1.92353,-21.59859 4.37497,-24.9998c1.03362,-1.43408 2.86553,-1.44763 3.74997,0.62499c2.26158,5.2998 1.24999,10.62492 1.24999,17.49987c0,8.74993 -0.62499,17.49987 -0.62499,26.8748c0,6.87495 0.51317,11.43659 2.49997,12.4999c1.1021,0.58982 2.32143,0.10355 3.12499,-4.37496c1.43914,-8.02085 0.60224,-20.84895 3.74996,-34.99974c3.13306,-14.08489 7.97814,-27.43018 11.87491,-30.62477c1.52845,-1.25302 2.88562,-0.78307 3.74997,1.87499c1.17566,3.61535 0.625,8.12493 0.625,13.74989c0,6.87495 0,15.62489 0,23.74982c0,6.24995 -0.60067,11.92334 0,15.62489c0.31659,1.95088 1.43668,3.15715 2.49999,2.49998c1.18881,-0.73473 2.81236,-9.3626 3.12497,-21.24984c0.32861,-12.49559 0.31663,-21.27735 1.25,-29.99978c0.47021,-4.39429 1.6035,-5.27354 2.49997,-3.74997c2.30745,3.92154 2.67387,8.71766 3.74997,14.99989c1.49227,8.71188 1.3387,15.61665 1.875,21.87483c0.749,8.7402 0.76039,15.36952 2.49997,18.74986c0.80889,1.57184 2.86608,1.40164 3.74996,-1.24999c2.20969,-6.62907 1.21337,-17.50185 1.875,-29.37478c0.5922,-10.6268 1.59867,-18.83951 3.74997,-24.99981c1.10965,-3.17752 3.54555,-3.83822 4.99996,-2.49998c3.50267,3.22292 3.71901,11.2528 4.37497,18.12486c0.59685,6.25271 0.625,13.7499 0.625,23.12483c0,4.37496 -0.56383,9.89019 0.62498,10.62492c1.06331,0.65716 2.42713,0.17355 3.74999,-4.99996c2.1896,-8.56326 0.95604,-21.32982 2.49997,-33.74975c1.17941,-9.48756 2.59449,-20.18423 4.99997,-26.2498c0.51519,-1.29911 2.23834,-1.37183 3.12497,1.87498c2.16554,7.93017 1.25,14.99989 1.25,23.12483c0,13.7499 -0.625,23.12483 -0.625,29.99977c0,5.62496 0,8.74994 0,10.62493c0,0.62499 1.41029,0.75187 1.87498,0c3.11719,-5.0437 3.79872,-13.89363 6.87495,-24.99982c3.16543,-11.42816 5.49997,-18.61267 9.37493,-23.74982c2.12906,-2.82256 4.67911,-2.68803 5.62497,4.37497c0.91253,6.81411 0,14.37489 0,23.12483c0,8.12493 -0.15097,13.09347 -1.25,18.74985c-0.72513,3.73191 -1.875,6.24996 -1.25,6.24996c0.625,0 2.09543,-2.10233 4.99997,-9.37493c3.59863,-9.0105 4.30978,-20.83979 8.12494,-31.87476c2.65487,-7.67895 6.18838,-15.28107 8.74994,-14.99989c1.38919,0.1525 4.05639,5.46497 4.99997,13.7499c0.84866,7.45176 0,16.24988 0,25.6248c0,7.49995 0,14.99989 0,19.99985c0,1.87499 0,2.49998 1.24996,2.49998c0.625,0 2.73673,-3.0404 3.74997,-6.24995c3.28601,-10.4087 3.92933,-17.45925 6.24997,-28.12479c1.35511,-6.22801 2.38816,-12.68658 4.37497,-13.74989c1.65311,-0.88472 3.12314,4.3033 3.74997,12.4999c0.66721,8.72446 0.625,18.74986 0.625,29.37478c0,9.99993 0,16.24988 0,23.12483c0,4.37497 0,6.87494 0,8.12494c0,0 0.71732,-0.58963 1.87497,-3.74997c2.0394,-5.56747 3.5813,-15.0211 4.99997,-25.62481c1.67615,-12.52812 3.51596,-23.32478 6.24994,-33.12476c1.43494,-5.14356 2.80392,-6.3601 3.125,-4.99996c1.29236,5.47449 0,11.87492 0,20.62485c0,4.99996 -2.40555,15.02901 -4.37497,21.24984c-1.78958,5.65271 -3.64035,11.28825 -4.99997,14.99988c-1.15765,3.16035 -1.46094,5.81872 -2.49997,7.49994c-0.46469,0.75188 -0.625,1.87499 -0.625,2.49999c0,0 0,0.625 0,1.24998c0,0 -0.625,0 -0.625,0.625c0,0 -0.38583,0.67258 -0.625,1.25c-0.67648,1.6332 -1.25,1.87499 -1.87497,2.49997c-0.625,0.625 -1.875,1.87499 -3.75,3.12499c-1.87497,1.24998 -3.04266,2.05534 -5.62494,3.12497c-1.82599,0.75634 -3.69232,0.93513 -6.24997,1.25c-1.2406,0.15272 -3.12497,0 -4.37497,0c-0.62496,0 -1.24996,0 -1.87496,-0.625c-0.625,-0.625 -1.05787,-1.36623 -1.875,-2.49999c-0.51679,-0.71702 -1.13981,-1.55389 -2.49997,-1.87498c-0.60828,-0.1436 -2.30838,-0.91175 -3.12497,-1.24999c-1.73227,-0.71751 -3.6398,-0.30391 -4.99997,-0.625c-2.43311,-0.57437 -4.99997,-0.625 -9.37494,-0.625c-2.49997,0 -4.99994,0 -7.49994,0c-3.12497,0 -5.62496,0 -7.49994,0c-1.87499,0 -3.12497,0 -4.37497,0c-0.62498,0 -0.62498,0 -1.24998,0c0,0 -0.42478,-0.64113 -0.625,-1.87498c-0.31659,-1.95088 -1.88006,-6.65576 -3.12497,-11.24991c-1.31791,-4.86347 -0.66045,-9.22948 -3.12499,-11.24992c-0.48332,-0.39623 -1.24998,0 -1.24998,2.49998c0,3.74998 0,7.49995 0,12.49991c0,4.99995 -1.1223,10.68188 -3.12499,14.99989c-1.76402,3.80342 -3.36676,6.82344 -4.99995,7.49994c-1.15485,0.47836 -2.46198,-2.51546 -3.74997,-5.62495c-1.8215,-4.39751 -4.46489,-8.06653 -6.87496,-11.87493c-1.94879,-3.07948 -3.18615,-5.51522 -4.37497,-6.24994c-0.53164,-0.32858 -0.62498,0.625 -0.62498,3.12497c0,3.12497 0,6.24996 0,9.99993c0,3.74997 -0.80603,8.22659 -1.87499,11.87491c-1.33834,4.56779 -2.49998,5.62495 -3.74998,5.62495c0,0 -1.43343,-3.05083 -3.12497,-7.49994c-2.10713,-5.54217 -5.16826,-11.80308 -7.49994,-17.49986c-2.02276,-4.94203 -3.01315,-8.93662 -4.99997,-9.99993c-0.55104,-0.29492 -1.24998,1.87499 -1.24998,4.99997c0,4.37496 0,8.74993 0,14.99988c0,4.37497 -0.23784,8.60184 -2.49999,12.49991c-1.40291,2.41747 -2.06167,3.78214 -3.12498,3.12497c-1.1888,-0.73473 -1.71747,-4.43431 -4.37496,-11.24991c-2.9516,-7.56987 -5.23907,-13.31373 -8.74994,-19.99985c-1.69424,-3.22654 -3.30804,-5.4419 -3.74996,-4.99997c-0.88389,0.88389 -0.31014,7.51095 0,11.87491c0.31327,4.40827 0.62498,8.74994 0.62498,13.12491c0,3.12497 -0.34885,6.57451 -2.49997,8.12494c-1.13374,0.81715 -2.8199,1.00588 -4.37497,-0.625c-2.51489,-2.63748 -4.54625,-8.66672 -8.12494,-16.24988c-2.62707,-5.56672 -5.36545,-11.98005 -7.49994,-16.87487c-1.11725,-2.56206 -1.87498,-2.49998 -1.87498,-0.625c0,3.12498 0.39635,7.08524 1.87498,11.24992c1.21932,3.43429 2.81011,6.19232 3.12497,8.74994c0.2291,1.86093 0.23918,3.79754 0,4.37497c-0.33824,0.81659 -1.30247,0.64988 -1.87498,-0.625c-1.37879,-3.07033 -2.98245,-10.07465 -4.99997,-13.7499c-1.75368,-3.19462 -3.30803,-4.81691 -3.74997,-4.37497c-0.44194,0.44194 0,1.25 0,4.99996c0,3.74998 0,7.49995 0,11.24992c0,3.12497 0,4.37497 -0.62499,4.37497c-0.625,0 -2.40893,-2.85992 -4.99997,-8.74994c-2.38748,-5.4273 -4.57463,-13.38974 -9.37493,-20.62484c-1.72766,-2.60397 -2.49997,-2.49998 -2.49997,-1.87499c0,1.87499 -0.00001,5.62496 0.62499,10.62492c0.62499,4.99996 0.625,8.74994 0.625,11.24991c0,1.87499 0.09204,4.48316 -0.625,4.99997c-1.13374,0.81716 -1.97014,1.10335 -3.12498,0.625c-0.8166,-0.33824 -1.68338,-3.41174 -2.49998,-3.74998c-0.57742,-0.23918 -0.625,-0.62499 -0.625,0.625c0,1.24998 0,2.49998 0,3.12498c0,0.62499 -0.18306,1.69193 -0.62499,1.24999c-1.32581,-1.32582 0,-5.62496 0,-9.37493c0,-5.62497 0.4886,-10.67736 -0.62499,-18.74986c-0.871,-6.31393 -2.77655,-13.70532 -3.74998,-20.62485c-0.875,-6.21988 -1.18961,-10.63549 -1.87498,-14.37489c-0.57453,-3.13464 -1.55841,-4.92406 -1.87499,-6.87495c-0.20022,-1.23385 -0.30391,-2.38983 -0.62499,-3.74997c-0.28718,-1.21655 -1.24999,-1.87498 -1.24999,-1.87498c-0.62499,1.24998 -2.13424,4.31721 -3.12498,9.37492c-0.84955,4.33696 -1.56188,9.34576 -1.87498,14.3749c-0.31069,4.9903 -0.44909,11.31447 -1.25,16.24987c-0.94975,5.85267 -3.46688,10.69516 -4.37497,13.7499c-0.95904,3.22617 -2.30782,4.49122 -3.12496,5.62496c-0.51682,0.71704 -2.03531,2.37311 -2.49999,3.12497c-1.03906,1.68123 -1.87498,3.12498 -3.12498,4.99997c-1.24999,1.87498 -2.25663,4.47452 -3.12497,6.24995c-0.99006,2.02431 -2.2608,3.79755 -2.49998,4.37497c-0.33825,0.81659 -1.24999,1.24999 -1.24999,1.24999c-0.625,1.24998 -0.80806,0.80804 -1.25,1.24998c-0.44194,0.44194 0,0.625 0,1.25c0,0.625 0.625,1.87499 0.625,2.49999c0,1.24998 0.625,1.24998 1.24999,1.87498c0,0 0.64172,-0.14358 1.24999,0c1.36015,0.32108 2.49999,0.62499 3.12498,0.62499c1.24999,0 2.49998,0 3.12498,0c1.24999,0 2.15654,-0.28156 3.74997,-1.87499c1.59342,-1.59343 2.32131,-3.88226 3.74996,-5.62495c0.56038,-0.68355 1.35011,-1.24192 1.25,-0.625c-0.31658,1.95088 -1.9927,4.33975 -2.49998,6.24995c-0.81797,3.08011 -0.625,5.62497 -0.625,8.12494c0,2.49998 1.24999,3.74997 1.87498,3.74997c2.49999,0 4.71811,-1.004 6.87496,-4.37496c2.25962,-3.53158 3.59705,-7.58244 4.99996,-9.99992c1.13107,-1.94903 1.92256,-2.73915 2.49998,-2.49998c0.81659,0.33824 0.625,2.49998 0.625,4.37497c0,1.24998 0,2.49997 0.62499,2.49997c0,0 1.00401,0.28831 1.87498,-1.24999c1.26966,-2.24243 1.70506,-6.2538 1.87499,-9.99992c0.31282,-6.89621 1.1687,-13.14182 0.625,-21.87484c-0.62621,-10.05828 -2.49999,-23.74982 -2.49999,-33.12475c0,-6.87495 -0.40045,-11.2822 0,-13.74989c0.31659,-1.95089 0.625,-3.12498 0.625,-4.37497c0,-1.87499 0.30034,-3.14919 0,-4.99997c-0.31658,-1.95089 -0.49365,-3.79899 -1.24999,-5.62495c-0.53481,-1.29115 -1.36625,-2.30783 -2.49998,-3.12498c-0.71704,-0.51681 -1.87499,-0.62499 -4.37496,-0.62499c-1.875,0 -3.12498,0 -3.74998,0c-0.62499,0 -1.05839,-0.91175 -1.87499,-1.25c-0.57741,-0.23917 0,0 1.25,0c1.24999,0 3.74997,0.625 5.62495,1.87499c1.87499,1.24999 5.63433,1.40272 6.87495,1.24999c2.55761,-0.31486 4.90693,-3.4283 6.24995,-6.24995c1.10749,-2.3268 1.25,-4.99996 0.625,-4.99996c-2.49998,0 0.25775,5.0106 0,8.12493c-0.31357,3.78875 -0.93597,7.45357 -1.24999,10.62492c-0.18475,1.86586 0,3.74997 0,3.74997c1.24999,0 3.10301,-2.33374 4.37497,-8.12493c1.21411,-5.52781 2.79719,-11.6206 3.74997,-16.87488c0.33454,-1.84489 1.43305,-3.56691 1.87499,-3.12497c0.44194,0.44194 0.93642,4.33619 1.24999,8.12494c0.30929,3.73719 0,8.12494 0,11.87491c0,4.37496 0,5.62496 0,5.62496c0.625,0 2.23345,-2.31379 4.37496,-6.87495c2.26947,-4.83371 3.31751,-11.07835 5.62496,-14.99989c1.34471,-2.28537 3.1584,-3.41217 4.37497,-3.12498c1.36014,0.32109 2.58174,2.47372 3.74997,6.24996c1.34472,4.34678 1.68202,8.16981 2.49998,11.24991c0.50728,1.9102 0.71833,2.82856 1.24999,2.49998c1.18881,-0.73472 2.05841,-5.55081 3.74997,-9.99992c1.40475,-3.69478 2.11677,-6.82345 3.74997,-7.49995c0.57742,-0.23917 1.63563,-0.15807 2.49998,2.49999c1.17566,3.61535 1.12885,8.76896 1.87499,13.1249c0.53805,3.14111 0.65843,5.91214 1.87498,5.62495c1.36015,-0.32108 2.42609,-3.7669 3.74997,-9.37492c1.18411,-5.01598 1.99391,-8.67589 3.12498,-10.62492c0.70147,-1.20875 1.32395,-1.54491 1.87499,-1.25c1.9868,1.06331 1.56706,5.01518 1.87498,8.12494c0.31403,3.17136 0.625,5.62496 0.625,8.12494c0,1.24999 0.39933,0.92463 1.24999,-0.62499c2.77281,-5.05116 3.95895,-10.81213 7.49994,-18.12487c2.80435,-5.79148 5.24177,-9.32343 6.87495,-9.99992c1.15483,-0.47835 2.37413,1.90282 3.12499,4.99996c1.07203,4.42194 1.72583,8.15287 2.49997,11.87491c0.52473,2.52293 0.80806,3.93303 1.25,4.37497c0.44192,0.44193 1.4846,-1.9488 2.49997,-6.24995c1.36225,-5.77062 3.62118,-11.30457 4.99997,-14.3749c0.57251,-1.27488 1.44281,-1.32902 1.87498,0c1.17566,3.61535 0.26416,8.76485 0.625,13.12491c0.31357,3.78874 0.21092,6.4437 1.24998,8.12493c0.4647,0.75188 1.62368,0.86574 3.12499,-1.87498c2.56543,-4.68335 3.52058,-8.87369 5.62495,-12.49991c1.13106,-1.94903 1.96833,-2.20356 2.49999,-1.87498c1.1888,0.73472 1.00365,5.01213 1.24998,7.49994c0.31403,3.17136 -0.09295,5.70855 0.625,8.74993c0.32108,1.36015 0.62499,1.87499 1.87499,1.87499c0.62498,0 2.1322,-4.00247 4.37497,-6.87495c1.63185,-2.09003 3.63981,-3.42888 4.99995,-3.74997c0.60828,-0.1436 1.34017,0.58384 1.87499,1.87499c0.75634,1.82596 0.92891,4.2648 1.25,5.62495c0.57438,2.43311 -0.4525,5.13917 -2.49999,7.49995c-2.8956,3.33864 -5.26394,6.58295 -8.74994,9.99992c-2.85794,2.80135 -8.88626,9.2807 -11.87491,13.7499c-3.27758,4.90127 -7.14973,9.64759 -10.62492,13.7499c-3.4279,4.04649 -6.87494,7.49994 -9.37492,9.99992c-3.12499,3.12498 -4.63179,5.4327 -7.49994,7.49994c-1.13375,0.81716 -2.15654,2.15654 -3.74999,3.74998c-1.59343,1.59342 -3.56587,2.71634 -4.99995,3.74997c-1.13374,0.81715 -2.69374,0.83593 -4.37497,1.87498c-0.75188,0.46468 -1.68338,2.16174 -2.49999,2.49999c-1.15483,0.47834 -2.54901,1.11864 -4.37496,1.87497c-1.29116,0.53481 -2.21821,1.84697 -4.37496,2.49999c-1.19636,0.36223 -2.49998,1.24998 -3.74998,1.87498c-2.49997,1.25 -4.22562,2.13494 -6.24994,3.12499c-1.77545,0.86833 -4.33975,1.99269 -6.24996,2.49997c-3.08011,0.81796 -4.87849,2.15524 -7.49995,3.12498c-2.41684,0.89406 -5.19371,1.46092 -6.87494,2.49999c-1.50374,0.92936 -1.87498,1.24998 -2.49998,1.87498c-0.625,0.62499 -1.01081,1.29756 -1.24999,1.87499c-0.33824,0.81659 -1.05784,1.36624 -1.87499,2.49998c-0.51681,0.71703 -1.24999,1.87499 -1.87499,3.12497c-0.625,1.24999 -0.625,1.87499 -0.625,2.49999c0,0.62498 0,0.62498 0,1.87498c0,0 -3.12498,5.62497 0,0.625c3.12498,-4.99997 6.69088,-1.46636 3.12498,-2.49998c-3.5659,-1.03362 3.47743,-1.47983 5.62495,-3.74997c1.54862,-1.63703 3.25425,-3.63291 4.37497,-4.99997c1.42867,-1.74269 2.8039,-3.01482 3.12499,-4.37497c0.28718,-1.21656 0.62498,-1.87499 1.24998,-2.49999c0,0 0,0.625 0,2.49999c0,1.25 0,3.12498 -0.625,4.37497c-0.62498,1.24998 -1.06692,2.05804 -0.62498,2.49998c0.44192,0.44193 1.99124,-0.43284 3.12497,-1.25c1.43408,-1.03363 1.93616,-3.01524 3.12498,-3.74997c0.53165,-0.32857 0.91217,1.28343 0.62499,2.49999c-0.32108,1.36013 -0.62499,2.49998 -0.62499,3.12498c0,0.62499 0.62499,0.62499 0.62499,0.62499c1.25,-0.62499 1.95675,-2.47371 3.12498,-6.24996c1.34474,-4.34678 3.26117,-11.81901 4.99996,-16.24988c3.3941,-8.64909 7.19899,-17.04779 11.24992,-23.74981c4.66269,-7.71414 9.76804,-14.14972 12.49991,-19.37486c2.20535,-4.21808 2.49997,-6.24995 2.49997,-8.12494c0,0 -0.75328,-0.79056 -3.12497,0c-2.96462,0.98821 -5.4543,3.58814 -9.99992,4.99996c-3.04346,0.94527 -6.31684,1.19939 -8.74994,0.625c-1.36014,-0.32109 -3.12497,-1.24999 -4.99996,-1.87498c-1.87498,-0.625 -4.42512,-1.44421 -6.24995,-1.87499c-2.72029,-0.64218 -4.51384,-2.18048 -6.24996,-3.12497c-3.51538,-1.91246 -5.07005,-3.69892 -6.87495,-6.24996c-1.30153,-1.83957 -1.87499,-4.37497 -3.12497,-6.87495c-1.25,-2.49998 -2.19952,-3.47384 -3.74997,-5.62495c-0.81715,-1.13374 -1.49179,-3.07349 -3.12498,-3.74998c-0.57742,-0.23917 -2.49998,-0.62499 -3.12498,-0.62499c-0.62499,0 -0.88776,0.05363 -1.24999,1.24999c-0.65301,2.15676 -1.5539,3.01482 -1.87499,4.37497c-0.14359,0.60827 -1.24998,1.87498 -1.87498,1.87498c-0.625,0 -0.81168,0.65716 -1.87499,0c-1.18881,-0.73472 -1.15451,-2.5258 -1.87498,-4.99996c-0.55258,-1.89759 -0.625,-3.12498 -0.625,-3.74997c0,0 0,0.62499 0,1.87498c0,0.625 -0.13134,2.54901 0.625,4.37497c0.53481,1.29115 2.16527,3.41527 4.37497,5.62496c2.20968,2.20969 4.85244,5.45415 9.99992,6.87495c6.73578,1.85919 15.56192,2.74982 27.49979,5.62496c19.90365,4.79362 34.95987,8.29744 48.12465,11.24991c11.84108,2.6556 22.49981,5.62496 30.62475,8.12494c8.12494,2.49998 14.3481,5.06803 20.62485,7.49994c4.97931,1.92922 10.47586,4.40273 13.74991,7.49995c2.27014,2.14753 4.03021,3.62851 4.99994,6.24995c0.89404,2.41686 0.625,5.62496 0.625,9.37493c0,2.49997 -1.02088,5.63901 -1.24997,7.49994c-0.31485,2.55762 -1.25,3.12497 -1.875,4.37497c-0.625,1.24999 -1.87497,2.49997 -2.49997,3.12497c-0.625,0.625 -0.80805,1.43305 -1.25,1.87499c-0.44196,0.44194 0,0.625 0,1.25c0,0 0,0.62498 0,0.62498c0,1.25 0,1.87499 0,3.12499c0,0.62498 0,1.24998 0,2.49998c0,0.62499 0,1.24999 0,1.24999c0,1.24998 0,1.87498 0,1.87498c0.625,0 1.25,0 1.25,0c0.625,0 1.97012,0.47836 3.12497,0c2.44977,-1.01474 3.59704,-3.20746 4.99997,-5.62495c1.13104,-1.94902 1.87497,-3.74997 1.87497,-4.37497c0,-0.625 0.05154,0.03541 -1.24997,1.87498c-1.8049,2.55106 -5.62497,6.24997 -8.12494,8.74994c-2.5,2.49999 -4.0932,4.97194 -6.24997,5.62495c-1.79453,0.54334 -3.15842,0.91221 -4.37497,0.625c-2.72028,-0.64218 -5.12126,-3.05532 -6.87494,-6.24995c-1.34502,-2.45018 -2.8084,-4.92407 -3.12499,-6.87495c-0.20022,-1.23384 0,-1.87499 0,-1.24999c0,0.62499 0.69742,2.47737 1.25,4.37497c0.72048,2.47414 0.62499,4.37496 0.62499,6.24994c0,0.625 -0.13843,1.3629 -0.62499,0.625c-1.85276,-2.80983 -2.62127,-7.4303 -4.37496,-10.62492c-1.34502,-2.45017 -1.25,-2.49997 -1.25,-1.24999c0,1.24999 0,3.74997 0,6.24996c0,2.49998 0.14358,4.39169 0,4.99995c-0.32108,1.36015 -2.12877,1.75545 -3.74997,0.625c-3.28267,-2.28897 -4.6263,-5.96469 -7.49994,-8.74994c-2.24395,-2.17491 -4.99997,-3.12497 -6.24996,-3.12497c-1.24998,0 -1.24998,0.625 -1.24998,4.37497c0,1.24999 0,5.62496 0.62498,6.24996c0,0 -0.50679,-0.01128 -0.62498,-0.625c-0.63649,-3.30497 -3.30535,-6.16764 -4.37497,-8.74994c-0.75633,-1.82596 -1.06694,-2.68303 -0.625,-3.12497c0.44194,-0.44194 1.87498,0 4.99997,0c5.62495,0 11.78033,-0.83708 19.99985,-4.37497c6.18298,-2.66132 9.40719,-3.97454 11.87489,-4.37497c1.9509,-0.31658 3.75,-0.62499 4.99997,-0.62499c1.25,0 2.74176,1.19849 4.37497,1.87499c1.15484,0.47835 3.15841,0.28718 4.37497,0c1.36017,-0.32109 4.20825,-2.64545 7.49994,-6.24996c4.17221,-4.56872 9.81994,-9.98844 13.1249,-10.62492c1.22745,-0.23638 1.25,0.62499 1.25,2.49998c0,3.12497 -0.90524,6.12848 -1.875,8.74993c-0.89407,2.41685 -0.93341,5.54907 -1.25,7.49995c-0.40045,2.46768 0,3.12497 0.625,3.12497c0.625,0 0.84922,0.20014 2.5,-1.87498c3.67069,-4.61423 4.80777,-7.6162 5.62494,-8.74994c0.51682,-0.71703 0.80976,0.63412 0.625,2.49998c-0.31402,3.17136 -0.625,5.62496 -0.625,8.12494c0,1.87499 -0.09204,3.85816 0.625,4.37497c1.13376,0.81716 2.5,0.625 3.74997,0.625c1.875,0 4.72385,-1.57455 6.87497,-3.12498c1.13373,-0.81714 2.49997,-1.24999 2.49997,-1.24999c0,0.625 0,2.49999 0,5.62496c0,2.49998 0,4.99997 0,7.49994c0,0.625 0.04758,1.48918 0.625,1.25c0.81659,-0.33825 0.83246,-1.39336 1.87497,-3.74997c0.91165,-2.06083 2.3999,-5.63305 2.5,-6.24996c0.31659,-1.95088 0.625,-2.49998 0.625,-0.625c0,2.49999 -1.09708,7.58245 -2.5,9.99993c-1.13107,1.94903 -2.49997,3.12498 -3.12497,3.74996c0,0 1.24999,6.87496 0,-2.49998c-1.24999,-9.37494 0.04383,-10.63058 -0.625,-15.62488c-0.58661,-4.38028 -1.26672,-6.39354 -1.87497,-6.24995c-1.36017,0.32109 -2.5599,5.61197 -3.75,11.24992c-1.31637,6.2363 -2.49997,9.99993 -1.24997,9.99993c1.25,0 -0.24633,-3.76214 0,-6.24996c0.31403,-3.17135 0.18308,-5.18303 0.625,-5.62495c0.44193,-0.44193 0.62497,0.62498 0.62497,3.74997c0,3.12497 -0.38162,5.0995 -1.24997,6.87494c-0.99005,2.0243 -1.875,1.87498 -3.12497,1.87498c-0.625,0 -1.69937,-1.44386 -3.75,-3.12497c-1.74267,-1.42865 -3.12497,-1.24998 -3.12497,-1.24998c0,0.62498 -0.47836,1.34513 0,2.49997c0.33826,0.8166 2.05805,1.69194 2.5,1.25c0.44196,-0.44194 -0.06118,-3.01525 -1.25,-3.74997c-1.59497,-0.98575 -3.30801,-0.44194 -3.74997,0c-0.44192,0.44192 0,1.24998 0,2.49997c0,0.625 0,1.87498 0.625,1.25c0.625,-0.625 4.51368,-4.1785 8.12494,-6.87496c3.91132,-2.92049 8.04749,-6.46442 11.24991,-7.49994c2.45191,-0.79283 3.12497,-0.625 3.12497,-0.625c0,1.25 0.56381,3.01525 -0.625,3.74997c-0.53165,0.32858 -1.24997,0 -1.24997,0c-0.625,0 -1.17621,0.04549 -3.125,3.12499c-1.20502,1.90419 -1.24997,3.12497 -1.87497,3.74997c0,0 1.19776,-2.90393 3.12497,-8.74994c1.80408,-5.47246 4.02414,-12.3859 6.24997,-18.12487c1.42935,-3.68533 2.49997,-4.99996 2.49997,-4.99996c0.625,0.625 1.25,3.12498 1.25,6.87496c0,4.99996 0.14359,8.14165 0,8.74993c-0.32107,1.36014 -0.625,0 -0.625,-1.24999c0,-2.49998 0.65592,-8.12159 1.24997,-13.7499c0.6593,-6.24643 0.53201,-11.33351 1.25,-14.37489c0.64218,-2.7203 2.61798,-2.86541 3.12497,-2.49999c3.2067,2.31126 1.875,8.12494 1.875,12.49991c0,4.37497 0.30545,8.14367 0,10.62493c-0.31485,2.55761 -1.25,3.74996 -0.625,3.74996c0.625,0 0.93689,-1.22081 1.25,-6.24995c0.34952,-5.61408 0.3121,-9.97655 0.625,-16.24988c0.24905,-4.99375 0.93594,-9.32855 1.24997,-12.4999c0.12317,-1.24391 0.09018,-0.04116 0.625,1.24999c0.75635,1.82596 1.875,2.49998 2.5,3.12498c0,0 3.74998,-1.24999 0,-1.87499c-3.74997,-0.62499 -1.25,-2.49998 -2.5,-3.74997c-0.625,-0.625 -0.625,-1.24999 -1.25,-1.87499c0,0 -0.80801,0.44194 -1.24997,0c-0.44193,-0.44193 -0.18304,-1.43305 -0.625,-1.87499c-0.44196,-0.44194 -1.25,-0.62499 -1.25,-1.24998c0,-0.625 0,-0.625 0,-1.24999c0,0 0.40924,-0.5144 -0.625,2.49997c-0.9071,2.64378 -1.48459,6.94876 -2.49997,11.24992c-0.90817,3.84708 -1.25,7.49995 -1.875,10.62492c-0.62497,3.12498 -1.00363,5.01213 -1.24997,7.49994c-0.31403,3.17136 -0.93341,4.92406 -1.25,6.87496c-0.20022,1.23385 0,1.87497 0,3.12497c0,0.62499 0,1.87499 0,2.49997c0,0 0.23917,0.67258 0,1.25c-0.33826,0.81661 -1.24997,1.24999 -1.87497,2.49999c-0.62497,1.24998 -0.81921,2.8343 -1.875,3.74997c-1.4931,1.29495 -3.79227,1.85679 -8.12494,1.24998c-4.50604,-0.63109 -10.93591,-6.68088 -19.37484,-12.49991c-15.70792,-10.83133 -28.49555,-17.34873 -37.49973,-21.87483c-9.75232,-4.90215 -18.19423,-8.6149 -24.37482,-11.87491c-5.69151,-3.00204 -9.35232,-4.44738 -11.24991,-4.99996c-2.47415,-0.72047 -3.76611,-0.42477 -4.99997,-0.62499c-1.95088,-0.31659 -3.12496,-0.625 -5.62495,-0.625c-1.87498,0 -4.37497,0 -10.62492,0c-4.37497,0 -9.37493,0 -14.3749,0c-4.99995,0 -13.74989,0 -18.74984,0c-6.87496,0 -12.49991,0 -17.49988,0c-5.62496,0 -9.99993,0 -14.99988,0c-3.74998,0 -6.87495,0 -9.99993,0c-3.12498,0 -6.24996,0.625 -10.62492,0.625c-2.49998,0 -4.92406,0.30841 -6.87495,0.62499c-1.85078,0.30034 -3.2081,0.35594 -5.62496,1.24999c-1.31072,0.48487 -2.61623,1.05784 -3.74996,1.87499c-0.71705,0.51681 -1.83384,1.34018 -3.12498,1.87498c-1.82597,0.75634 -3.6231,2.0353 -4.37497,2.49999c-1.68123,1.03906 -3.70881,1.96516 -4.99996,2.49998c-1.82597,0.75633 -3.24124,1.05783 -4.37497,1.87498c-1.43408,1.03362 -2.42593,1.36892 -4.37496,2.49998c-1.20874,0.70147 -2.49999,1.25 -4.37497,1.87499c-1.87499,0.62499 -2.47738,1.32241 -4.37497,1.87498c-2.47416,0.72048 -3.52966,1.85782 -6.24995,2.49999c-1.21656,0.28719 -1.87499,0.62499 -3.12498,0.62499c-0.625,0 -1.5539,0.11015 -1.87499,-1.24999c-0.28719,-1.21655 -0.62499,-2.49998 -0.62499,-4.37496c0,-1.875 0.11772,-4.96476 0.62499,-6.87496c0.81797,-3.0801 1.15702,-6.33355 1.87499,-9.37492c0.64217,-2.7203 1.24999,-4.99997 1.24999,-8.12494c0,-1.87499 0,-3.74998 0,-4.99996c0,-0.625 0,-1.87499 0,-2.49999c0,-0.62499 0,-1.24999 0,-1.24999c0,-1.24999 0,-1.24999 0,-1.87498c0,0 0,-0.625 0,-0.625c0.62499,0 1.24999,0 1.24999,0c0,0.625 -0.31954,33.14349 0,4.37497c0.31955,-28.76851 -1.53672,4.66949 -2.49998,8.74993c-0.71797,3.04139 -0.93514,4.94233 -1.24999,7.49994c-0.2291,1.86094 0,3.12498 0,4.37497c0,1.25 0,1.87499 0,1.87499c0,0.625 0,1.24999 0,1.87498l0.62499,0" id="svg_4" fill-opacity="null" stroke-opacity="null" stroke-width="15" stroke="#000" fill="none"/>
  <line stroke="#000" stroke-linecap="null" stroke-linejoin="null" id="svg_7" y2="169.813043" x2="98.348762" y1="283.811469" x1="99.01542" fill-opacity="null" stroke-opacity="null" stroke-width="15" fill="none"/>
  <line stroke-linecap="null" stroke-linejoin="null" id="svg_8" y2="138.480146" x2="296.346023" y1="281.144839" x1="295.012708" fill-opacity="null" stroke-opacity="null" stroke-width="15" stroke="#000" fill="none"/>
  <line stroke="#000000" stroke-linecap="null" stroke-linejoin="null" id="svg_13" y2="244.253529" x2="291.771655" y1="244.253529" x1="243.3746" stroke-width="15" fill="none"/>
  <line stroke="#000000" stroke-linecap="null" stroke-linejoin="null" id="svg_15" y2="244.822881" x2="220.964859" y1="244.822881" x1="172.567806" stroke-width="15" fill="none"/>
 </g>
</svg>