<svg width="149.99999999999997" height="149.99999999999997" xmlns="http://www.w3.org/2000/svg">
 <!-- Created with Method Draw - http://github.com/duopixel/Method-Draw/ -->
 <g>
  <title>background</title>
  <rect fill="rgba(0,0,0,0)" id="canvas_background" height="152" width="152" y="-1" x="-1"/>
  <g display="none" overflow="visible" y="0" x="0" height="100%" width="100%" id="canvasGrid">
   <rect fill="url(#gridpattern)" stroke-width="0" y="0" x="0" height="100%" width="100%"/>
  </g>
 </g>
 <g>
  <title>Layer 1</title>
  <path stroke="#FFA9A2" d="m111.899192,140.994615c1.16793,4.96134 -5.66007,-22.77446 -8.80988,-35.64305c-3.14982,-12.8686 -6.41491,-26.34619 -9.50157,-39.11272c-6.17333,-25.53308 -11.63293,-48.22197 -14.0291,-57.50646c-2.39616,-9.2845 -35.17469,133.45543 -37.93229,123.36263c-1.37881,-5.0464 -1.18763,-26.3948 -6.51966,-38.45432c-5.33203,-12.05952 -11.96498,-19.10109 -19.7511,-26.76132c-7.78612,-7.66024 8.84917,-6.28604 22.57438,-6.94405c13.72521,-0.65801 14.17,-0.94079 24.55842,-1.35939c10.38843,-0.4186 22.75754,-0.78783 36.44252,-1.06316c6.8425,-0.13767 30.30362,-0.70636 37.72094,-0.79152c1.85434,-0.02129 -43.61095,15.33862 -49.48897,20.01735c-5.87802,4.67873 -6.94484,5.93639 -9.69683,16.64635c-2.75199,10.70997 -0.72377,16.09169 1.53787,21.48507c2.26163,5.39337 14.33103,18.45788 33.57627,26.44848" id="svg_8" stroke-width="9" fill="none"/>
 </g>
</svg>