<svg width="333" height="85" xmlns="http://www.w3.org/2000/svg">
 <!-- Created with Method Draw - http://github.com/duopixel/Method-Draw/ -->

 <g>
  <title>Layer 1</title>
  <g stroke="null" transform="rotate(10.074963569641113 0,0) " id="svg_169"/>
  <!-- Created with Method Draw - http://github.com/duopixel/Method-Draw/ -->
  <g stroke="null" id="svg_339">
   <g stroke="null" transform="matrix(1.1331536225630892,0,0,1.223412620831538,-1921.6504129668383,-1398.4299150648562) " id="svg_338">
    <title stroke="null" transform="translate(-91.1915283203125,-153.94200134277344) translate(1778.779541015625,0) translate(0,1296.437255859375) ">Layer 1</title>
    <!-- Created with Method Draw - http://github.com/duopixel/Method-Draw/ -->
    <!-- Created with Method Draw - http://github.com/duopixel/Method-Draw/ -->
    <!-- Created with Method Draw - http://github.com/duopixel/Method-Draw/ -->
    <!-- Created with Method Draw - http://github.com/duopixel/Method-Draw/ -->
    <!-- Created with Method Draw - http://github.com/duopixel/Method-Draw/ -->
    <!-- Created with Method Draw - http://github.com/duopixel/Method-Draw/ -->
    <!-- Created with Method Draw - http://github.com/duopixel/Method-Draw/ -->
    <!-- Created with Method Draw - http://github.com/duopixel/Method-Draw/ -->
    <g stroke="null" id="svg_255">
     <g stroke="null" id="svg_330">
      <g stroke="null" id="svg_331" transform="matrix(0.17945645660233522,0,0,0.19181288431959603,-47.70505411543127,-95.02632079647265) ">
       <title stroke="null" transform="translate(-508.154052734375,-802.5634155273438) translate(6.1914544105529785,0) translate(9912.0400390625,0) translate(0,6758.8642578125) ">Layer 1</title>
       <line stroke="#BBBBBB" stroke-linecap="undefined" stroke-linejoin="undefined" id="svg_336" y2="6740.854791" x2="9868.305741" y1="6512.489865" x1="9763.58983" stroke-width="57" fill="#000"/>
       <line stroke="#BBBBBB" stroke-linecap="undefined" stroke-linejoin="undefined" id="svg_335" y2="6768.861811" x2="9866.101196" y1="6485.861796" x1="10040.589839" stroke-width="57" fill="#000"/>
       <g stroke="null" id="svg_332">
        <line stroke="#000" stroke-linecap="undefined" stroke-linejoin="undefined" id="svg_334" y2="6742.861794" x2="9857.58983" y1="6530.861794" x1="9762.58983" stroke-width="57" fill="none"/>
        <line stroke="#000" stroke-linecap="undefined" stroke-linejoin="undefined" id="svg_333" y2="6768.861794" x2="9855.58983" y1="6483.861794" x1="10026.58983" stroke-width="57" fill="none"/>
       </g>
      </g>
     </g>
     <g stroke="null" id="svg_320">
      <g stroke="null" id="svg_321" transform="matrix(0.11111111773384952,0,0,0.09303882941503941,0,21.867469768447336) ">
       <title stroke="null" transform="translate(-820.7236938476562,-1654.5994873046875) translate(9.999868392944336,2.842170943040401e-14) translate(16009.0146484375,2.842170943040401e-14) translate(0,13934.3671875) ">Layer 1</title>
       <g stroke="null" id="svg_326">
        <line stroke="#999999" stroke-linecap="undefined" stroke-linejoin="undefined" id="svg_329" y2="12409.286776" x2="15869.380305" y1="12383.897366" x1="15719.89772" stroke-width="53" fill="#000"/>
        <line stroke="#999999" stroke-linecap="undefined" stroke-linejoin="undefined" id="svg_328" y2="12684.507976" x2="15879.290752" y1="12709.897386" x1="15713.290755" stroke-width="53" fill="#000"/>
        <line stroke="#999999" stroke-linecap="undefined" stroke-linejoin="undefined" id="svg_327" y2="12694.66374" x2="15793.400207" y1="12395.068706" x1="15795.051948" stroke-width="53" fill="#000"/>
       </g>
       <g stroke="null" id="svg_322">
        <line stroke="#000" stroke-linecap="undefined" stroke-linejoin="undefined" id="svg_325" y2="12419.897383" x2="15879.380306" y1="12394.897383" x1="15729.897721" stroke-width="53" fill="none"/>
        <line stroke="#000" stroke-linecap="undefined" stroke-linejoin="undefined" id="svg_324" y2="12690.897383" x2="15889.290753" y1="12715.897383" x1="15723.290756" stroke-width="53" fill="none"/>
        <line stroke="#000" stroke-linecap="undefined" stroke-linejoin="undefined" id="svg_323" y2="12700.897383" x2="15803.400207" y1="12405.897383" x1="15805.051949" stroke-width="53" fill="none"/>
       </g>
      </g>
     </g>
     <g stroke="null" id="svg_308">
      <g stroke="null" id="svg_318" transform="matrix(0.11111111773384952,0,0,0.11111111773384952,0,0) ">
       <title stroke="null" transform="translate(-820.7236938476562,-1385.4779052734375) translate(9.999868392944336,0) translate(16009.0146484375,0) translate(0,11667.9345703125) ">background</title>
       <rect stroke="null" fill="none" id="svg_319" height="402" width="582" y="10504.456684" x="15879.290754"/>
      </g>
      <g stroke="null" id="svg_309" transform="matrix(0.11111111773384952,0,0,0.11111111773384952,0,0) ">
       <title stroke="null" transform="translate(-820.7236938476562,-1385.4779052734375) translate(9.999868392944336,0) translate(9.999868392944336,0) translate(9.999868392944336,0) translate(9.999868392944336,0) translate(16009.0146484375,0) translate(0,11667.9345703125) ">Layer 1</title>
       <g stroke="null" id="svg_314">
        <line stroke="#999999" stroke-width="50" stroke-linecap="undefined" stroke-linejoin="undefined" id="svg_317" y2="10565.198563" x2="16083.648329" y1="10845.401984" x1="15991.290359" fill-opacity="null" stroke-opacity="null" fill="#000"/>
        <line stroke="#999999" stroke-linecap="undefined" stroke-linejoin="undefined" id="svg_316" y2="10581.259981" x2="16083.648329" y1="10836.105636" x1="16166.971281" fill-opacity="null" stroke-opacity="null" stroke-width="50" fill="#000"/>
        <line stroke="#999999" stroke-linecap="undefined" stroke-linejoin="undefined" id="svg_315" y2="10820.783446" x2="16166.971281" y1="10563.402018" x1="16249.290337" fill-opacity="null" stroke-opacity="null" stroke-width="50" fill="#000"/>
       </g>
       <g stroke="null" id="svg_310">
        <line stroke="#000" stroke-width="50" stroke-linecap="undefined" stroke-linejoin="undefined" id="svg_313" y2="10574.192186" x2="16066.784522" y1="10853.401987" x1="15977.290359" fill-opacity="null" stroke-opacity="null" fill="none"/>
        <line stroke="#000" stroke-linecap="undefined" stroke-linejoin="undefined" id="svg_312" y2="10590.19665" x2="16066.784522" y1="10844.138604" x1="16147.523822" fill-opacity="null" stroke-opacity="null" stroke-width="50" fill="none"/>
        <line stroke="#000" stroke-linecap="undefined" stroke-linejoin="undefined" id="svg_311" y2="10828.870748" x2="16147.523822" y1="10572.402012" x1="16227.290354" fill-opacity="null" stroke-opacity="null" stroke-width="50" fill="none"/>
       </g>
      </g>
     </g>
     <g stroke="null" id="svg_301">
      <g stroke="null" id="svg_306" transform="matrix(0.11111111773384952,0,0,0.11111111773384952,0,0) ">
       <title stroke="null" transform="translate(-820.7236938476562,-1385.4779052734375) translate(9.999868392944336,0) translate(16009.0146484375,0) translate(0,11667.9345703125) ">background</title>
       <rect stroke="null" fill="none" id="svg_307" height="402" width="582" y="10495.456665" x="16220.289722"/>
      </g>
      <g stroke="null" id="svg_302" transform="matrix(0.11111111773384952,0,0,0.11111111773384952,0,0) ">
       <title stroke="null" transform="translate(-820.7236938476562,-1385.4779052734375) translate(9.999868392944336,0) translate(16009.0146484375,0) translate(0,11667.9345703125) ">Layer 1</title>
       <path stroke="#999999" id="svg_305" d="m16186.292123,10528.919315" opacity="0.5" fill-opacity="null" stroke-opacity="null" stroke-width="50" fill="none"/>
       <path stroke="#999999" transform="rotate(-61 16434.123046875,10691.0380859375) " id="svg_304" d="m16411.059243,10799.196845c-101.42753,-11.42845 -118.57021,-145.71279 -24.99974,-199.99795c93.57047,-54.28516 187.33324,36.21823 148.66835,133.87675" fill-opacity="null" stroke-opacity="null" stroke-width="50" fill="none"/>
       <path stroke="#000000" transform="rotate(-61 16428.765624999996,10705.323242187502) " id="svg_303" d="m16404.846423,10819.410265c-105.19083,-12.05481 -122.96956,-153.69885 -25.92732,-210.9592c97.04225,-57.26036 194.28392,38.20323 154.18445,141.2141" stroke-width="50" fill="none"/>
      </g>
     </g>
     <g stroke="null" id="svg_286">
      <g stroke="null" id="svg_299" transform="matrix(0.11111111773384952,0,0,0.11111111773384952,0,0) ">
       <title stroke="null" transform="translate(-820.7236938476562,-1385.4779052734375) translate(9.999868392944336,0) translate(16009.0146484375,0) translate(0,11667.9345703125) ">background</title>
       <rect stroke="null" fill="none" id="svg_300" height="402" width="582" y="10513.456673" x="16526.289694"/>
      </g>
      <g stroke="null" id="svg_287" transform="matrix(0.11111111773384952,0,0,0.11111111773384952,0,0) ">
       <title stroke="null" transform="translate(-820.7236938476562,-1385.4779052734375) translate(9.999868392944336,0) translate(16009.0146484375,0) translate(0,11667.9345703125) ">Layer 1</title>
       <path stroke="#999999" id="svg_298" d="m16492.292093,10546.919325" opacity="0.5" fill-opacity="null" stroke-opacity="null" stroke-width="50" fill="none"/>
       <g stroke="null" id="svg_293">
        <line stroke="#BBBBBB" stroke-linecap="null" stroke-linejoin="null" id="svg_297" y2="10597.509936" x2="16821.076914" y1="10598.22011" x1="16663.989841" stroke-width="50" fill="none"/>
        <line stroke="#BBBBBB" stroke-linecap="null" stroke-linejoin="null" id="svg_296" y2="10699.064726" x2="16787.26445" y1="10699.774899" x1="16671.738531" stroke-width="50" fill="none"/>
        <line stroke="#BBBBBB" stroke-linecap="null" stroke-linejoin="null" id="svg_295" y2="10805.590729" x2="16836.57429" y1="10823.345062" x1="16632.290656" stroke-width="50" fill="none"/>
        <line stroke="#BBBBBB" stroke-linecap="null" stroke-linejoin="null" id="svg_294" y2="10804.170388" x2="16654.12787" y1="10576.204736" x1="16687.23591" stroke-width="50" fill="none"/>
       </g>
       <g stroke="null" id="svg_288">
        <line stroke="#000000" stroke-linecap="null" stroke-linejoin="null" id="svg_292" y2="10608.347264" x2="16811.574524" y1="10609.061543" x1="16652.290442" stroke-width="50" fill="none"/>
        <line stroke="#000000" stroke-linecap="null" stroke-linejoin="null" id="svg_291" y2="10710.489075" x2="16777.289161" y1="10711.203354" x1="16660.147504" stroke-width="50" fill="none"/>
        <line stroke="#000000" stroke-linecap="null" stroke-linejoin="null" id="svg_290" y2="10817.630835" x2="16827.288645" y1="10835.487795" x1="16620.147914" stroke-width="50" fill="none"/>
        <line stroke="#000000" stroke-linecap="null" stroke-linejoin="null" id="svg_289" y2="10816.202284" x2="16642.290541" y1="10586.918913" x1="16675.861629" stroke-width="50" fill="none"/>
       </g>
      </g>
     </g>
     <g stroke="null" id="svg_274">
      <g stroke="null" id="svg_284" transform="matrix(0.11111111773384952,0,0,0.11111111773384952,0,0) ">
       <title stroke="null" transform="translate(-820.7236938476562,-1385.4779052734375) translate(9.999868392944336,0) translate(16009.0146484375,0) translate(0,11667.9345703125) ">background</title>
       <rect stroke="null" fill="none" id="svg_285" height="402" width="582" y="10504.456684" x="16824.290654"/>
      </g>
      <g stroke="null" id="svg_275" transform="matrix(0.11111111773384952,0,0,0.11111111773384952,0,0) ">
       <title stroke="null" transform="translate(-820.7236938476562,-1385.4779052734375) translate(9.999868392944336,0) translate(16009.0146484375,0) translate(0,11667.9345703125) ">Layer 1</title>
       <g stroke="null" id="svg_280">
        <line stroke="#999999" stroke-width="50" stroke-linecap="undefined" stroke-linejoin="undefined" id="svg_283" y2="10565.198563" x2="16998.648624" y1="10845.401984" x1="16906.290654" fill-opacity="null" stroke-opacity="null" fill="#000"/>
        <line stroke="#999999" stroke-linecap="undefined" stroke-linejoin="undefined" id="svg_282" y2="10581.259981" x2="16998.648624" y1="10836.105636" x1="17081.971576" fill-opacity="null" stroke-opacity="null" stroke-width="50" fill="#000"/>
        <line stroke="#999999" stroke-linecap="undefined" stroke-linejoin="undefined" id="svg_281" y2="10820.783446" x2="17081.971576" y1="10563.402018" x1="17164.290632" fill-opacity="null" stroke-opacity="null" stroke-width="50" fill="#000"/>
       </g>
       <g stroke="null" id="svg_276">
        <line stroke="#000" stroke-width="50" stroke-linecap="undefined" stroke-linejoin="undefined" id="svg_279" y2="10574.192186" x2="16981.784817" y1="10853.401987" x1="16892.290654" fill-opacity="null" stroke-opacity="null" fill="none"/>
        <line stroke="#000" stroke-linecap="undefined" stroke-linejoin="undefined" id="svg_278" y2="10590.19665" x2="16981.784817" y1="10844.138604" x1="17062.524117" fill-opacity="null" stroke-opacity="null" stroke-width="50" fill="none"/>
        <line stroke="#000" stroke-linecap="undefined" stroke-linejoin="undefined" id="svg_277" y2="10828.870748" x2="17062.524117" y1="10572.402012" x1="17142.290649" fill-opacity="null" stroke-opacity="null" stroke-width="50" fill="none"/>
       </g>
      </g>
     </g>
     <g stroke="null" id="svg_263">
      <g stroke="null" id="svg_272" transform="matrix(0.11111111773384952,0,0,0.11111111773384952,0,0) ">
       <title stroke="null" transform="translate(-820.7236938476562,-1385.4779052734375) translate(9.999868392944336,0) translate(16009.0146484375,0) translate(0,11667.9345703125) ">background</title>
       <rect stroke="null" fill="none" id="svg_273" height="402" width="582" y="10486.45668" x="17165.289648"/>
      </g>
      <g stroke="null" id="svg_264" transform="matrix(0.11111111773384952,0,0,0.11111111773384952,0,0) ">
       <title stroke="null" transform="translate(-820.7236938476562,-1385.4779052734375) translate(9.999868392944336,0) translate(16009.0146484375,0) translate(0,11667.9345703125) ">Layer 1</title>
       <path stroke="#999999" id="svg_271" d="m17131.292043,10519.919325" opacity="0.5" fill-opacity="null" stroke-opacity="null" stroke-width="50" fill="none"/>
       <g stroke="null" id="svg_268">
        <line stroke="#BBBBBB" stroke-linecap="null" stroke-linejoin="null" id="svg_270" y2="10543.490516" x2="17525.573719" y1="10579.204435" x1="17234.862412" fill-opacity="null" stroke-width="50" fill="none"/>
        <line stroke="#BBBBBB" stroke-linecap="null" stroke-linejoin="null" id="svg_269" y2="10572.77593" x2="17379.146648" y1="10856.344453" x1="17352.004069" fill-opacity="null" stroke-width="50" fill="none"/>
       </g>
       <g stroke="null" id="svg_265">
        <line stroke="#000000" stroke-linecap="null" stroke-linejoin="null" id="svg_267" y2="10553.490413" x2="17507.71675" y1="10589.93818" x1="17223.433951" fill-opacity="null" stroke-width="50" fill="none"/>
        <line stroke="#000000" stroke-linecap="null" stroke-linejoin="null" id="svg_266" y2="10583.377582" x2="17364.527625" y1="10872.772855" x1="17337.985251" fill-opacity="null" stroke-width="50" fill="none"/>
       </g>
      </g>
     </g>
     <g stroke="null" id="svg_260">
      <g stroke="null" id="svg_261" transform="matrix(0.11111111773384952,0,0,0.11111111773384952,0,0) ">
       <title stroke="null" transform="translate(-820.7236938476562,-1385.4779052734375) translate(9.999868392944336,0) translate(16009.0146484375,0) translate(0,11667.9345703125) ">Layer 1</title>
       <line stroke="#000" stroke-linecap="undefined" stroke-linejoin="undefined" id="svg_262" y2="10582.456715" x2="17592.79084" y1="10522.456715" x1="17627.79084" stroke-width="35" fill="none"/>
      </g>
     </g>
     <g stroke="null" id="svg_256">
      <g stroke="null" id="svg_257" transform="matrix(0.11111111773384952,0,0,0.11111111773384952,0,0) ">
       <title stroke="null" transform="translate(-820.7236938476562,-1385.4779052734375) translate(9.999868392944336,0) translate(16009.0146484375,0) translate(0,11667.9345703125) ">Layer 1</title>
       <path stroke="#999999" transform="rotate(105 17760.166015625,10690.191406250002) " id="svg_259" d="m17634.203733,10639.110465c95.30708,434.49339 164.33376,-347.12698 251.92375,120.14556" stroke-width="59" fill="none"/>
       <path stroke="#000" transform="rotate(105 17749.291015625004,10699.457031250002) " id="svg_258" d="m17619.947993,10648.376015c97.86506,434.49339 168.74436,-347.12698 258.68521,120.14556" fill-opacity="null" stroke-opacity="null" stroke-width="52" fill="none"/>
      </g>
     </g>
    </g>
   </g>
  </g>
 </g>
</svg>