<svg xmlns="http://www.w3.org/2000/svg" width="640" height="640">
 <!-- Created with Method Draw - http://github.com/duopixel/Method-Draw/ -->
 <g>
  <title>Layer 1</title>
  <path d="m36.42531,337.29801c2.56411,-18.64804 41.99117,-47.86557 0,-7.37604c-41.99117,40.48953 14.38371,-15.59424 21.42882,-21.42881c10.14389,-8.40087 18.41243,-13.13458 25.71458,-17.14306c8.40074,-4.61154 16.93021,-7.59809 25.71458,-11.42868c11.18836,-4.87888 24.1003,-9.2479 38.57187,-12.8573c14.13576,-3.52564 32.85752,-4.28577 42.85764,-4.28577c11.42869,0 24.28599,1.42859 38.57187,4.28577c14.28587,2.85718 33.67004,9.18692 54.28634,14.28586c19.61234,4.85061 35.57419,7.65979 55.71494,12.8573c18.45511,4.76251 34.13895,9.34115 47.14337,11.42871c14.17566,2.27557 25.7146,1.42859 37.14331,1.42859c20.00022,0 29.92298,-1.64087 41.42905,-5.71436c8.51718,-3.01535 16.54974,-7.92203 25.71457,-14.28589c9.46054,-6.56918 17.95058,-11.21129 30.00036,-17.14303c13.85096,-6.55282 95.74523,-64.28562 10.00013,-5.71436l0,0" id="svg_18" fill-opacity="null" stroke-width="51" stroke="rgb(20,90,190)" fill="none"/>
 </g>
</svg>